<mxfile host="app.diagrams.net" modified="2023-11-23T13:32:37.256Z" agent="Mozilla/5.0 (X11; Linux x86_64) AppleWebKit/537.36 (KHTML, like Gecko) Chrome/118.0.0.0 Safari/537.36" etag="8X0c4skeMafrBI4w7aQL" version="22.1.3" type="device">
  <diagram name="Page-1" id="-y4YoypF31cz1oTX0XOy">
    <mxGraphModel dx="2636" dy="812" grid="1" gridSize="10" guides="1" tooltips="1" connect="1" arrows="1" fold="1" page="1" pageScale="1" pageWidth="1200" pageHeight="1600" math="0" shadow="0">
      <root>
        <mxCell id="0" />
        <mxCell id="1" parent="0" />
        <mxCell id="8m8G_ucQZHipWHy-k3em-33" value="" style="rounded=0;whiteSpace=wrap;html=1;dashed=1;" vertex="1" parent="1">
          <mxGeometry x="60" y="70" width="560" height="340" as="geometry" />
        </mxCell>
        <mxCell id="8m8G_ucQZHipWHy-k3em-9" value="&lt;p style=&quot;margin:0px;margin-top:4px;text-align:center;&quot;&gt;&lt;i&gt;&amp;lt;&amp;lt;Interface&amp;gt;&amp;gt;&lt;/i&gt;&lt;br&gt;&lt;b&gt;IModalStore&amp;lt;ModalNames, ModalsRegistry&amp;gt;&lt;/b&gt;&lt;/p&gt;&lt;hr size=&quot;1&quot;&gt;&lt;p style=&quot;margin:0px;margin-left:4px;&quot;&gt;+ registry: ModalsRegistry&lt;/p&gt;&lt;hr size=&quot;1&quot;&gt;&lt;p style=&quot;margin:0px;margin-left:4px;&quot;&gt;+ open(name: ModalNames, props: ModalsRegistry[ModalNames]): void&lt;/p&gt;&lt;p style=&quot;margin:0px;margin-left:4px;&quot;&gt;+ close(name: ModalNames): void&lt;/p&gt;" style="verticalAlign=top;align=left;overflow=fill;fontSize=12;fontFamily=Helvetica;html=1;whiteSpace=wrap;" vertex="1" parent="1">
          <mxGeometry x="120" y="210" width="440" height="120" as="geometry" />
        </mxCell>
        <mxCell id="8m8G_ucQZHipWHy-k3em-10" value="&lt;p style=&quot;margin:0px;margin-top:4px;text-align:center;&quot;&gt;&lt;i&gt;&amp;lt;&amp;lt;Interface&amp;gt;&amp;gt;&lt;/i&gt;&lt;br&gt;&lt;b&gt;IModalsRegistry&amp;lt;ModalNames&amp;gt;&lt;/b&gt;&lt;/p&gt;&lt;hr size=&quot;1&quot;&gt;&lt;p style=&quot;margin:0px;margin-left:4px;&quot;&gt;+ [key in ModalNames]: IModalProps&lt;/p&gt;" style="verticalAlign=top;align=left;overflow=fill;fontSize=12;fontFamily=Helvetica;html=1;whiteSpace=wrap;" vertex="1" parent="1">
          <mxGeometry x="120" y="130" width="210" height="80" as="geometry" />
        </mxCell>
        <mxCell id="8m8G_ucQZHipWHy-k3em-12" value="Modals Store Factory" style="whiteSpace=wrap;html=1;aspect=fixed;" vertex="1" parent="1">
          <mxGeometry x="-370" y="70" width="120" height="120" as="geometry" />
        </mxCell>
        <mxCell id="8m8G_ucQZHipWHy-k3em-13" value="&lt;p style=&quot;margin:0px;margin-top:4px;text-align:center;&quot;&gt;&lt;i&gt;&amp;lt;&amp;lt;Interface&amp;gt;&amp;gt;&lt;/i&gt;&lt;br&gt;&lt;b&gt;IModalProps&lt;/b&gt;&lt;/p&gt;&lt;hr size=&quot;1&quot;&gt;&lt;p style=&quot;margin:0px;margin-left:4px;&quot;&gt;+ isOpen: boolean;&lt;br&gt;&lt;/p&gt;&lt;hr size=&quot;1&quot;&gt;&lt;p style=&quot;margin:0px;margin-left:4px;&quot;&gt;+ onClose(): void&lt;/p&gt;" style="verticalAlign=top;align=left;overflow=fill;fontSize=12;fontFamily=Helvetica;html=1;whiteSpace=wrap;" vertex="1" parent="1">
          <mxGeometry x="330" y="110" width="230" height="100" as="geometry" />
        </mxCell>
        <mxCell id="8m8G_ucQZHipWHy-k3em-29" value="Modals Store Implementation" style="whiteSpace=wrap;html=1;aspect=fixed;" vertex="1" parent="1">
          <mxGeometry x="-170" y="70" width="120" height="120" as="geometry" />
        </mxCell>
        <mxCell id="8m8G_ucQZHipWHy-k3em-30" value="" style="endArrow=block;dashed=1;endFill=0;endSize=12;html=1;rounded=0;entryX=0;entryY=0.5;entryDx=0;entryDy=0;exitX=1;exitY=0.5;exitDx=0;exitDy=0;" edge="1" parent="1" source="8m8G_ucQZHipWHy-k3em-12" target="8m8G_ucQZHipWHy-k3em-29">
          <mxGeometry width="160" relative="1" as="geometry">
            <mxPoint x="-200" y="220" as="sourcePoint" />
            <mxPoint x="-70" y="219.47" as="targetPoint" />
          </mxGeometry>
        </mxCell>
        <mxCell id="8m8G_ucQZHipWHy-k3em-31" value="" style="endArrow=classic;html=1;rounded=0;entryX=0;entryY=0.25;entryDx=0;entryDy=0;exitX=1;exitY=0.5;exitDx=0;exitDy=0;" edge="1" parent="1" source="8m8G_ucQZHipWHy-k3em-29" target="8m8G_ucQZHipWHy-k3em-9">
          <mxGeometry width="50" height="50" relative="1" as="geometry">
            <mxPoint x="-70" y="222.5" as="sourcePoint" />
            <mxPoint x="-20" y="172.5" as="targetPoint" />
          </mxGeometry>
        </mxCell>
        <mxCell id="8m8G_ucQZHipWHy-k3em-34" value="Modals Provider Factory" style="whiteSpace=wrap;html=1;aspect=fixed;" vertex="1" parent="1">
          <mxGeometry x="-380" y="290" width="120" height="120" as="geometry" />
        </mxCell>
        <mxCell id="8m8G_ucQZHipWHy-k3em-35" value="Modals Provider Implementation" style="whiteSpace=wrap;html=1;aspect=fixed;" vertex="1" parent="1">
          <mxGeometry x="-170" y="290" width="120" height="120" as="geometry" />
        </mxCell>
        <mxCell id="8m8G_ucQZHipWHy-k3em-38" value="" style="endArrow=block;dashed=1;endFill=0;endSize=12;html=1;rounded=0;entryX=0;entryY=0.5;entryDx=0;entryDy=0;exitX=1;exitY=0.5;exitDx=0;exitDy=0;" edge="1" parent="1" source="8m8G_ucQZHipWHy-k3em-34" target="8m8G_ucQZHipWHy-k3em-35">
          <mxGeometry width="160" relative="1" as="geometry">
            <mxPoint x="-330" y="450" as="sourcePoint" />
            <mxPoint x="-170" y="450" as="targetPoint" />
          </mxGeometry>
        </mxCell>
        <mxCell id="8m8G_ucQZHipWHy-k3em-39" value="" style="endArrow=classic;html=1;rounded=0;exitX=1;exitY=0.5;exitDx=0;exitDy=0;entryX=0;entryY=0.25;entryDx=0;entryDy=0;" edge="1" parent="1" source="8m8G_ucQZHipWHy-k3em-35" target="8m8G_ucQZHipWHy-k3em-9">
          <mxGeometry width="50" height="50" relative="1" as="geometry">
            <mxPoint x="-40" y="370" as="sourcePoint" />
            <mxPoint x="10" y="320" as="targetPoint" />
          </mxGeometry>
        </mxCell>
        <mxCell id="8m8G_ucQZHipWHy-k3em-43" value="Application" style="whiteSpace=wrap;html=1;aspect=fixed;" vertex="1" parent="1">
          <mxGeometry x="280" y="540" width="120" height="120" as="geometry" />
        </mxCell>
        <mxCell id="8m8G_ucQZHipWHy-k3em-44" value="" style="endArrow=classic;html=1;rounded=0;entryX=0.5;entryY=1;entryDx=0;entryDy=0;exitX=0.5;exitY=0;exitDx=0;exitDy=0;" edge="1" parent="1" source="8m8G_ucQZHipWHy-k3em-43" target="8m8G_ucQZHipWHy-k3em-9">
          <mxGeometry width="50" height="50" relative="1" as="geometry">
            <mxPoint x="270" y="500" as="sourcePoint" />
            <mxPoint x="320" y="450" as="targetPoint" />
          </mxGeometry>
        </mxCell>
      </root>
    </mxGraphModel>
  </diagram>
</mxfile>
